<svg width="25" height="24" viewBox="0 0 25 24" fill="none" xmlns="http://www.w3.org/2000/svg">
<path fill-rule="evenodd" clip-rule="evenodd" d="M2.79747 15.4645C3.73516 14.5268 5.00692 14 6.33301 14H12.333C13.6591 14 14.9309 14.5268 15.8685 15.4645C16.8062 16.4021 17.333 17.6739 17.333 19V21C17.333 21.5523 16.8853 22 16.333 22C15.7807 22 15.333 21.5523 15.333 21V19C15.333 18.2044 15.0169 17.4413 14.4543 16.8787C13.8917 16.3161 13.1287 16 12.333 16H6.33301C5.53736 16 4.7743 16.3161 4.21169 16.8787C3.64908 17.4413 3.33301 18.2044 3.33301 19V21C3.33301 21.5523 2.88529 22 2.33301 22C1.78072 22 1.33301 21.5523 1.33301 21V19C1.33301 17.6739 1.85979 16.4021 2.79747 15.4645Z" fill="black"/>
<path fill-rule="evenodd" clip-rule="evenodd" d="M9.33301 4C7.67615 4 6.33301 5.34315 6.33301 7C6.33301 8.65685 7.67615 10 9.33301 10C10.9899 10 12.333 8.65685 12.333 7C12.333 5.34315 10.9899 4 9.33301 4ZM4.33301 7C4.33301 4.23858 6.57158 2 9.33301 2C12.0944 2 14.333 4.23858 14.333 7C14.333 9.76142 12.0944 12 9.33301 12C6.57158 12 4.33301 9.76142 4.33301 7Z" fill="black"/>
<path fill-rule="evenodd" clip-rule="evenodd" d="M18.365 14.88C18.5031 14.3453 19.0485 14.0237 19.5832 14.1618C20.6559 14.4387 21.6062 15.0641 22.285 15.9396C22.9637 16.8152 23.3324 17.8914 23.3332 18.9993L23.3333 21C23.3333 21.5523 22.8855 22 22.3333 22C21.781 22 21.3333 21.5523 21.3333 21L21.3333 19.0007C21.3333 19.0006 21.3333 19.0008 21.3333 19.0007C21.3327 18.3361 21.1115 17.6902 20.7043 17.165C20.297 16.6396 19.7268 16.2644 19.0833 16.0982C18.5485 15.9602 18.2269 15.4147 18.365 14.88Z" fill="#111111"/>
<path fill-rule="evenodd" clip-rule="evenodd" d="M15.3645 2.88196C15.5015 2.34693 16.0463 2.02426 16.5813 2.16125C17.6568 2.43663 18.6101 3.06213 19.2908 3.93914C19.9716 4.81615 20.3411 5.89479 20.3411 7.005C20.3411 8.11521 19.9716 9.19385 19.2908 10.0709C18.6101 10.9479 17.6568 11.5734 16.5813 11.8487C16.0463 11.9857 15.5015 11.6631 15.3645 11.128C15.2275 10.593 15.5502 10.0482 16.0852 9.91125C16.7305 9.74602 17.3025 9.37072 17.7109 8.84452C18.1194 8.31831 18.3411 7.67113 18.3411 7.005C18.3411 6.33887 18.1194 5.69169 17.7109 5.16548C17.3025 4.63928 16.7305 4.26398 16.0852 4.09875C15.5502 3.96176 15.2275 3.41699 15.3645 2.88196Z" fill="#111111"/>
</svg>
