<svg width="25" height="24" viewBox="0 0 25 24" fill="none" xmlns="http://www.w3.org/2000/svg">
<path fill-rule="evenodd" clip-rule="evenodd" d="M15.712 14.8787C16.2746 14.3161 17.0377 14 17.8333 14H22.3733C22.9256 14 23.3733 14.4477 23.3733 15C23.3733 15.5523 22.9256 16 22.3733 16H17.8333C17.5681 16 17.3137 16.1054 17.1262 16.2929C16.9387 16.4804 16.8333 16.7348 16.8333 17V21.54C16.8333 22.0923 16.3856 22.54 15.8333 22.54C15.281 22.54 14.8333 22.0923 14.8333 21.54V17C14.8333 16.2043 15.1494 15.4413 15.712 14.8787Z" fill="black"/>
<path fill-rule="evenodd" clip-rule="evenodd" d="M7.83331 2.34009C8.3856 2.34009 8.83331 2.7878 8.83331 3.34009V5.00009C8.83331 5.53052 9.04403 6.03923 9.4191 6.4143C9.79417 6.78937 10.3029 7.00009 10.8333 7.00009C11.629 7.00009 12.392 7.31616 12.9546 7.87877C13.5172 8.44138 13.8333 9.20444 13.8333 10.0001C13.8333 10.5478 14.2856 11.0001 14.8333 11.0001C15.0985 11.0001 15.3529 10.8947 15.5404 10.7072C15.728 10.5197 15.8333 10.2653 15.8333 10.0001C15.8333 8.3478 17.181 7.00009 18.8333 7.00009H22.0033C22.5556 7.00009 23.0033 7.4478 23.0033 8.00009C23.0033 8.55237 22.5556 9.00009 22.0033 9.00009H18.8333C18.2856 9.00009 17.8333 9.45237 17.8333 10.0001C17.8333 10.7957 17.5172 11.5588 16.9546 12.1214C16.392 12.684 15.629 13.0001 14.8333 13.0001C13.181 13.0001 11.8333 11.6524 11.8333 10.0001C11.8333 9.73487 11.728 9.48052 11.5404 9.29298C11.3529 9.10544 11.0985 9.00009 10.8333 9.00009C9.77245 9.00009 8.75503 8.57866 8.00489 7.82852C7.25474 7.07837 6.83331 6.06095 6.83331 5.00009V3.34009C6.83331 2.7878 7.28103 2.34009 7.83331 2.34009Z" fill="black"/>
<path fill-rule="evenodd" clip-rule="evenodd" d="M1.8833 11C1.8833 10.4477 2.33102 10 2.8833 10H5.8333C6.62895 10 7.39201 10.3161 7.95462 10.8787C8.51723 11.4413 8.8333 12.2044 8.8333 13V14C8.8333 14.2652 8.93866 14.5196 9.12619 14.7071C9.31373 14.8946 9.56808 15 9.8333 15C10.629 15 11.392 15.3161 11.9546 15.8787C12.5172 16.4413 12.8333 17.2043 12.8333 18V21.95C12.8333 22.5023 12.3856 22.95 11.8333 22.95C11.281 22.95 10.8333 22.5023 10.8333 21.95V18C10.8333 17.7348 10.7279 17.4804 10.5404 17.2929C10.3529 17.1054 10.0985 17 9.8333 17C9.03765 17 8.27459 16.6839 7.71198 16.1213C7.14937 15.5587 6.8333 14.7957 6.8333 14V13C6.8333 12.7348 6.72794 12.4804 6.54041 12.2929C6.35287 12.1054 6.09852 12 5.8333 12H2.8833C2.33102 12 1.8833 11.5523 1.8833 11Z" fill="#111111"/>
<path fill-rule="evenodd" clip-rule="evenodd" d="M12.8333 3C7.86275 3 3.83331 7.02944 3.83331 12C3.83331 16.9706 7.86275 21 12.8333 21C17.8039 21 21.8333 16.9706 21.8333 12C21.8333 7.02944 17.8039 3 12.8333 3ZM1.83331 12C1.83331 5.92487 6.75818 1 12.8333 1C18.9084 1 23.8333 5.92487 23.8333 12C23.8333 18.0751 18.9084 23 12.8333 23C6.75818 23 1.83331 18.0751 1.83331 12Z" fill="#111111"/>
</svg>
