<svg viewBox="0 0 20 20" class="icon icon-remove" fill="none" xmlns="http://www.w3.org/2000/svg">
<path fill="currentColor" fill-rule="evenodd" clip-rule="evenodd" d="M7.50035 3.33334C7.50035 3.1877 7.58156 2.97231 7.7771 2.77677C7.97265 2.58122 8.18804 2.50001 8.33368 2.50001H11.667C11.8127 2.50001 12.028 2.58122 12.2236 2.77677C12.4191 2.97231 12.5003 3.1877 12.5003 3.33334V4.16666H7.50035V3.33334ZM6.66117 5.83332L6.66701 5.83334L6.67285 5.83332H13.3278L13.3337 5.83334L13.3395 5.83332H15.0003V16.6667C15.0003 16.8123 14.9191 17.0277 14.7236 17.2232C14.528 17.4188 14.3127 17.5 14.167 17.5H5.83368C5.68804 17.5 5.47265 17.4188 5.2771 17.2232C5.08156 17.0277 5.00035 16.8123 5.00035 16.6667V5.83332H6.66117ZM5.83368 4.16666V3.33334C5.83368 2.64565 6.16914 2.02771 6.59859 1.59825C7.02805 1.1688 7.64599 0.833344 8.33368 0.833344H11.667C12.3547 0.833344 12.9726 1.1688 13.4021 1.59825C13.8316 2.02771 14.167 2.64565 14.167 3.33334V4.16666H15.8337H17.5003C17.9606 4.16666 18.3337 4.53975 18.3337 4.99999C18.3337 5.46023 17.9606 5.83332 17.5003 5.83332H16.667V16.6667C16.667 17.3543 16.3316 17.9723 15.9021 18.4017C15.4726 18.8312 14.8547 19.1667 14.167 19.1667H5.83368C5.14599 19.1667 4.52805 18.8312 4.09859 18.4017C3.66914 17.9723 3.33368 17.3543 3.33368 16.6667V5.83332H2.50033C2.04009 5.83332 1.66699 5.46023 1.66699 4.99999C1.66699 4.53975 2.04009 4.16666 2.50033 4.16666H4.16701H5.83368ZM8.33367 8.33334C8.79391 8.33334 9.167 8.70644 9.167 9.16668V14.1667C9.167 14.6269 8.79391 15 8.33367 15C7.87343 15 7.50034 14.6269 7.50034 14.1667V9.16668C7.50034 8.70644 7.87343 8.33334 8.33367 8.33334ZM12.5003 9.16668C12.5003 8.70644 12.1272 8.33334 11.667 8.33334C11.2068 8.33334 10.8337 8.70644 10.8337 9.16668V14.1667C10.8337 14.6269 11.2068 15 11.667 15C12.1272 15 12.5003 14.6269 12.5003 14.1667V9.16668Z" fill="black"/>
</svg>
