<svg width="20" height="20" viewBox="0 0 20 20" fill="none" class="icon icon-hamburger" fill="none" xmlns="http://www.w3.org/2000/svg">
<path fill="currentColor" d="M18 3H2C1.44772 3 1 3.44772 1 4C1 4.55228 1.44772 5 2 5H18C18.5523 5 19 4.55228 19 4C19 3.44772 18.5523 3 18 3Z" fill="black"/>
<path d="M18 9H2C1.44772 9 1 9.44772 1 10C1 10.5523 1.44772 11 2 11H18C18.5523 11 19 10.5523 19 10C19 9.44772 18.5523 9 18 9Z" fill="black"/>
<path d="M18 15H2C1.44772 15 1 15.4477 1 16C1 16.5523 1.44772 17 2 17H18C18.5523 17 19 16.5523 19 16C19 15.4477 18.5523 15 18 15Z" fill="black"/>
</svg>
