<svg viewBox="0 0 20 20" class="icon icon-account" fill="none" xmlns="http://www.w3.org/2000/svg">
<path fill-rule="evenodd" clip-rule="evenodd" d="M10 1.81818C5.48131 1.81818 1.81818 5.48131 1.81818 10C1.81818 12.4289 2.87659 14.6106 4.55735 16.1091C4.61638 15.4792 4.89314 14.8863 5.34425 14.4352C5.85572 13.9237 6.54941 13.6364 7.27273 13.6364H12.7273C13.4506 13.6364 14.1443 13.9237 14.6557 14.4352C15.1069 14.8863 15.3836 15.4792 15.4426 16.1091C17.1234 14.6106 18.1818 12.4289 18.1818 10C18.1818 5.48131 14.5187 1.81818 10 1.81818ZM13.6364 17.3313V16.3636C13.6364 16.1225 13.5406 15.8913 13.3701 15.7208C13.1996 15.5503 12.9684 15.4545 12.7273 15.4545H7.27273C7.03162 15.4545 6.80039 15.5503 6.6299 15.7208C6.45941 15.8913 6.36364 16.1225 6.36364 16.3636V17.3313C7.45905 17.8757 8.69378 18.1818 10 18.1818C11.3062 18.1818 12.5409 17.8757 13.6364 17.3313ZM0 10C0 4.47715 4.47715 0 10 0C15.5228 0 20 4.47715 20 10C20 15.5228 15.5228 20 10 20C4.47715 20 0 15.5228 0 10ZM10 6.36364C8.99585 6.36364 8.18182 7.17766 8.18182 8.18182C8.18182 9.18597 8.99585 10 10 10C11.0042 10 11.8182 9.18597 11.8182 8.18182C11.8182 7.17766 11.0042 6.36364 10 6.36364ZM6.36364 8.18182C6.36364 6.17351 7.99169 4.54545 10 4.54545C12.0083 4.54545 13.6364 6.17351 13.6364 8.18182C13.6364 10.1901 12.0083 11.8182 10 11.8182C7.99169 11.8182 6.36364 10.1901 6.36364 8.18182Z" fill="black"/>
</svg>
