<svg class="icon icon-cart-empty" height="20" width="18" viewBox="0 0 18 20" fill="none" xmlns="http://www.w3.org/2000/svg">
<path fill-rule="evenodd" clip-rule="evenodd" d="M2.88 0.363636C3.04997 0.134722 3.31672 0 3.6 0H14.4C14.6833 0 14.95 0.134722 15.12 0.363636L17.8147 3.99284C17.9237 4.13643 17.9912 4.31382 17.9992 4.50674C17.9997 4.51962 18 4.53252 18 4.54545V17.2727C18 17.996 17.7155 18.6897 17.2092 19.2012C16.7028 19.7127 16.0161 20 15.3 20H2.7C1.98392 20 1.29716 19.7127 0.790812 19.2012C0.284463 18.6897 0 17.996 0 17.2727V4.54546V4.54545C0 4.33757 0.0690786 4.14599 0.185312 3.99285L2.88 0.363636ZM13.95 1.81818L15.3 3.63637H2.7L4.05 1.81818H13.95ZM1.8 17.2727V5.45455H16.2V17.2727C16.2 17.5138 16.1052 17.7451 15.9364 17.9156C15.7676 18.086 15.5387 18.1818 15.3 18.1818H2.7C2.46131 18.1818 2.23239 18.086 2.0636 17.9156C1.89482 17.7451 1.8 17.5138 1.8 17.2727ZM6.30002 8.18181C6.30002 7.67973 5.89707 7.27272 5.40002 7.27272C4.90296 7.27272 4.50002 7.67973 4.50002 8.18181C4.50002 9.38734 4.97412 10.5435 5.81804 11.3959C6.66195 12.2484 7.80654 12.7273 9.00002 12.7273C10.1935 12.7273 11.3381 12.2484 12.182 11.3959C13.0259 10.5435 13.5 9.38734 13.5 8.18181C13.5 7.67973 13.0971 7.27272 12.6 7.27272C12.103 7.27272 11.7 7.67973 11.7 8.18181C11.7 8.90513 11.4156 9.59882 10.9092 10.1103C10.4029 10.6217 9.7161 10.9091 9.00002 10.9091C8.28393 10.9091 7.59718 10.6217 7.09083 10.1103C6.58448 9.59882 6.30002 8.90513 6.30002 8.18181Z" fill="black" />
</svg>
