<svg width="25" height="24" viewBox="0 0 25 24" fill="none" xmlns="http://www.w3.org/2000/svg">
<path fill-rule="evenodd" clip-rule="evenodd" d="M9.66602 2C9.66602 1.44772 10.1137 1 10.666 1H14.666C15.2183 1 15.666 1.44772 15.666 2C15.666 2.55228 15.2183 3 14.666 3H10.666C10.1137 3 9.66602 2.55228 9.66602 2Z" fill="black"/>
<path fill-rule="evenodd" clip-rule="evenodd" d="M16.3731 10.2929C16.7636 10.6834 16.7636 11.3166 16.3731 11.7071L13.3731 14.7071C12.9826 15.0976 12.3494 15.0976 11.9589 14.7071C11.5684 14.3166 11.5684 13.6834 11.9589 13.2929L14.9589 10.2929C15.3494 9.90237 15.9826 9.90237 16.3731 10.2929Z" fill="black"/>
<path fill-rule="evenodd" clip-rule="evenodd" d="M12.666 7C8.80002 7 5.66602 10.134 5.66602 14C5.66602 17.866 8.80002 21 12.666 21C16.532 21 19.666 17.866 19.666 14C19.666 10.134 16.532 7 12.666 7ZM3.66602 14C3.66602 9.02944 7.69545 5 12.666 5C17.6366 5 21.666 9.02944 21.666 14C21.666 18.9706 17.6366 23 12.666 23C7.69545 23 3.66602 18.9706 3.66602 14Z" fill="#111111"/>
</svg>
