<svg viewBox="0 0 16 17" class="icon icon-filter" fill="none" xmlns="http://www.w3.org/2000/svg">
<path fill="currentColor" fill-rule="evenodd" clip-rule="evenodd" d="M10.0007 1.83335C10.0007 1.46516 9.70219 1.16669 9.334 1.16669C8.96581 1.16669 8.66733 1.46516 8.66733 1.83335V3.16668V4.50002C8.66733 4.86821 8.96581 5.16669 9.334 5.16669C9.70219 5.16669 10.0007 4.86821 10.0007 4.50002V3.83335H14.0007C14.3689 3.83335 14.6673 3.53487 14.6673 3.16668C14.6673 2.79849 14.3689 2.50001 14.0007 2.50001H10.0007V1.83335ZM1.33398 3.16668C1.33398 2.79849 1.63246 2.50001 2.00065 2.50001H6.66732C7.03551 2.50001 7.33398 2.79849 7.33398 3.16668C7.33398 3.53487 7.03551 3.83335 6.66732 3.83335H2.00065C1.63246 3.83335 1.33398 3.53487 1.33398 3.16668ZM8.00065 7.83334C7.63246 7.83334 7.33398 8.13181 7.33398 8.5C7.33398 8.86819 7.63246 9.16667 8.00065 9.16667H14.0007C14.3688 9.16667 14.6673 8.86819 14.6673 8.5C14.6673 8.13181 14.3688 7.83334 14.0007 7.83334H8.00065ZM1.33398 8.5C1.33398 8.13181 1.63246 7.83334 2.00065 7.83334H4.66733V7.16668C4.66733 6.79849 4.96581 6.50001 5.334 6.50001C5.70219 6.50001 6.00067 6.79849 6.00067 7.16668V9.83335C6.00067 10.2015 5.70219 10.5 5.334 10.5C4.96581 10.5 4.66733 10.2015 4.66733 9.83335V9.16667H2.00065C1.63246 9.16667 1.33398 8.86819 1.33398 8.5ZM10.0007 13.8334V12.5C10.0007 12.1318 10.2991 11.8333 10.6673 11.8333C11.0355 11.8333 11.334 12.1318 11.334 12.5V13.1667H14.0007C14.3688 13.1667 14.6673 13.4652 14.6673 13.8334C14.6673 14.2015 14.3688 14.5 14.0007 14.5H11.334V15.1667C11.334 15.5349 11.0355 15.8333 10.6673 15.8333C10.2991 15.8333 10.0007 15.5349 10.0007 15.1667V13.8334ZM1.33398 13.8334C1.33398 13.4652 1.63246 13.1667 2.00065 13.1667H8.00065C8.36884 13.1667 8.66732 13.4652 8.66732 13.8334C8.66732 14.2015 8.36884 14.5 8.00065 14.5H2.00065C1.63246 14.5 1.33398 14.2015 1.33398 13.8334Z"/>
</svg>
