<svg width="24" height="24" viewBox="0 0 24 24" fill="none" xmlns="http://www.w3.org/2000/svg">
<path fill-rule="evenodd" clip-rule="evenodd" d="M16.7075 1.29289C17.098 1.68342 17.098 2.31658 16.7075 2.70711L14.4113 5.00322C14.0469 5.37674 13.8428 5.878 13.8428 6.4C13.8428 6.922 14.0469 7.42326 14.4113 7.79678L16.2036 9.58899C16.5771 9.95348 17.0783 10.1576 17.6003 10.1576C18.1223 10.1576 18.6236 9.95349 18.9971 9.58901L21.2932 7.29289C21.6838 6.90237 22.3169 6.90237 22.7075 7.29289C23.098 7.68342 23.098 8.31658 22.7075 8.70711L20.4004 11.0142C19.6527 11.7471 18.6474 12.1576 17.6003 12.1576C16.5533 12.1576 15.5481 11.7471 14.8003 11.0141L14.7932 11.0071L12.9862 9.20004C12.2533 8.45232 11.8428 7.44701 11.8428 6.4C11.8428 5.35299 12.2533 4.34772 12.9862 3.6L12.9932 3.59286L15.2932 1.29289C15.6838 0.902369 16.3169 0.902369 16.7075 1.29289Z" fill="black"/>
<path fill-rule="evenodd" clip-rule="evenodd" d="M2.59982 2.58576C2.99147 2.20203 3.61907 2.20523 4.00678 2.59294L22.7068 21.2929C23.0973 21.6835 23.0973 22.3166 22.7068 22.7072C22.3163 23.0977 21.6831 23.0977 21.2926 22.7072L14.9997 16.4143L14.1068 17.3072C14.0911 17.3228 14.0749 17.338 14.0582 17.3526C12.9085 18.3586 11.007 18.4216 9.89257 17.3072L2.596 10.0106C2.10365 9.52719 1.71241 8.95063 1.4451 8.31449C1.17711 7.6767 1.03906 6.99185 1.03906 6.30005C1.03906 5.60824 1.17711 4.92339 1.4451 4.28561C1.7131 3.64782 2.10567 3.06993 2.59982 2.58576ZM13.5855 15L3.40311 4.8177C3.36174 4.89683 3.32364 4.9778 3.28893 5.06039C3.12401 5.45288 3.03906 5.87432 3.03906 6.30005C3.03906 6.72578 3.12401 7.14722 3.28893 7.5397C3.45386 7.93219 3.69544 8.28782 3.99953 8.58576L4.00682 8.59291L11.3068 15.8929C11.5879 16.174 12.2692 16.2395 12.72 15.8655L13.5855 15Z" fill="black"/>
<path fill-rule="evenodd" clip-rule="evenodd" d="M9.21226 14.7985C9.5997 15.1921 9.59471 15.8252 9.20113 16.2127L2.80113 22.5127C2.40754 22.9001 1.77439 22.8951 1.38696 22.5015C0.99952 22.1079 1.00451 21.4748 1.39809 21.0873L7.79809 14.7873C8.19168 14.3999 8.82482 14.4049 9.21226 14.7985Z" fill="#111111"/>
<path fill-rule="evenodd" clip-rule="evenodd" d="M19.7071 4.29289C20.0976 4.68342 20.0976 5.31658 19.7071 5.70711L12.7071 12.7071C12.3166 13.0976 11.6834 13.0976 11.2929 12.7071C10.9024 12.3166 10.9024 11.6834 11.2929 11.2929L18.2929 4.29289C18.6834 3.90237 19.3166 3.90237 19.7071 4.29289Z" fill="#111111"/>
</svg>
