<svg viewBox="0 0 18 18" fill="none" class="icon icon-search" xmlns="http://www.w3.org/2000/svg">
<path fill-rule="evenodd" clip-rule="evenodd" d="M1.80001 8.10004C1.80001 4.62063 4.62063 1.80001 8.10004 1.80001C11.5795 1.80001 14.4001 4.62063 14.4001 8.10004C14.4001 11.5795 11.5795 14.4001 8.10004 14.4001C4.62063 14.4001 1.80001 11.5795 1.80001 8.10004ZM8.10004 0C3.62651 0 0 3.62651 0 8.10004C0 12.5736 3.62651 16.2001 8.10004 16.2001C10.0126 16.2001 11.7703 15.5373 13.156 14.4288L16.4636 17.7364C16.8151 18.0879 17.3849 18.0879 17.7364 17.7364C18.0879 17.3849 18.0879 16.8151 17.7364 16.4636L14.4288 13.156C15.5373 11.7703 16.2001 10.0126 16.2001 8.10004C16.2001 3.62651 12.5736 0 8.10004 0Z" fill="black"/>
</svg>
