<svg viewBox="0 0 18 18" fill="none" class="icon icon-cart-empty" xmlns="http://www.w3.org/2000/svg">
<path fill-rule="evenodd" clip-rule="evenodd" d="M2.88 0.363636C3.04997 0.134722 3.31672 0 3.6 0H14.4C14.6833 0 14.95 0.134722 15.12 0.363636L17.8145 3.99265C17.9238 4.13657 17.9915 4.31447 17.9992 4.50794C17.9997 4.52042 18 4.53293 18 4.54545V17.2727C18 17.996 17.7155 18.6897 17.2092 19.2012C16.7028 19.7127 16.0161 20 15.3 20H2.7C1.98392 20 1.29716 19.7127 0.790812 19.2012C0.284463 18.6897 0 17.996 0 17.2727V4.54545C0 4.33749 0.0691341 4.14583 0.185454 3.99265L2.88 0.363636ZM13.95 1.81818L15.3 3.63636H2.7L4.05 1.81818H13.95ZM1.8 17.2727V5.45455H16.2V17.2727C16.2 17.5138 16.1052 17.7451 15.9364 17.9156C15.7676 18.086 15.5387 18.1818 15.3 18.1818H2.7C2.46131 18.1818 2.23239 18.086 2.0636 17.9156C1.89482 17.7451 1.8 17.5138 1.8 17.2727ZM6.3 8.18181C6.3 7.67973 5.89706 7.27272 5.4 7.27272C4.90294 7.27272 4.5 7.67973 4.5 8.18181C4.5 9.38734 4.97411 10.5435 5.81802 11.3959C6.66193 12.2484 7.80653 12.7273 9 12.7273C10.1935 12.7273 11.3381 12.2484 12.182 11.3959C13.0259 10.5435 13.5 9.38734 13.5 8.18181C13.5 7.67973 13.0971 7.27272 12.6 7.27272C12.1029 7.27272 11.7 7.67973 11.7 8.18181C11.7 8.90513 11.4155 9.59882 10.9092 10.1103C10.4028 10.6217 9.71608 10.9091 9 10.9091C8.28392 10.9091 7.59716 10.6217 7.09081 10.1103C6.58446 9.59882 6.3 8.90513 6.3 8.18181Z" fill="black"/>
</svg>
