<svg width="16" height="16" viewBox="0 0 16 16" fill="none" xmlns="http://www.w3.org/2000/svg">
<path fill-rule="evenodd" clip-rule="evenodd" d="M13.3656 3.76571C13.678 3.45329 13.678 2.94676 13.3656 2.63434C13.0532 2.32192 12.5466 2.32192 12.2342 2.63434L7.9999 6.86865L3.76559 2.63434C3.45317 2.32192 2.94664 2.32192 2.63422 2.63434C2.3218 2.94676 2.3218 3.45329 2.63422 3.76571L6.86853 8.00002L2.63422 12.2343C2.3218 12.5468 2.3218 13.0533 2.63422 13.3657C2.94664 13.6781 3.45317 13.6781 3.76559 13.3657L7.9999 9.1314L12.2342 13.3657C12.5466 13.6781 13.0532 13.6781 13.3656 13.3657C13.678 13.0533 13.678 12.5468 13.3656 12.2343L9.13127 8.00002L13.3656 3.76571Z" fill="white"/>
</svg>
