<svg viewBox="0 0 18 20" fill="none" xmlns="http://www.w3.org/2000/svg">
<path fill-rule="evenodd" clip-rule="evenodd" d="M6.50035 3.33334C6.50035 3.1877 6.58156 2.97231 6.7771 2.77677C6.97265 2.58122 7.18804 2.50001 7.33368 2.50001H10.667C10.8127 2.50001 11.028 2.58122 11.2236 2.77677C11.4191 2.97231 11.5003 3.1877 11.5003 3.33334V4.16666H6.50035V3.33334ZM5.66117 5.83332L5.66701 5.83334L5.67285 5.83332H12.3278L12.3337 5.83334L12.3395 5.83332H14.0003V16.6667C14.0003 16.8123 13.9191 17.0277 13.7236 17.2232C13.528 17.4188 13.3127 17.5 13.167 17.5H4.83368C4.68804 17.5 4.47265 17.4188 4.2771 17.2232C4.08156 17.0277 4.00035 16.8123 4.00035 16.6667V5.83332H5.66117ZM4.83368 4.16666V3.33334C4.83368 2.64565 5.16914 2.02771 5.59859 1.59825C6.02805 1.1688 6.64599 0.833344 7.33368 0.833344H10.667C11.3547 0.833344 11.9726 1.1688 12.4021 1.59825C12.8316 2.02771 13.167 2.64565 13.167 3.33334V4.16666H14.8337H16.5003C16.9606 4.16666 17.3337 4.53975 17.3337 4.99999C17.3337 5.46023 16.9606 5.83332 16.5003 5.83332H15.667V16.6667C15.667 17.3543 15.3316 17.9723 14.9021 18.4017C14.4726 18.8312 13.8547 19.1667 13.167 19.1667H4.83368C4.14599 19.1667 3.52805 18.8312 3.09859 18.4017C2.66914 17.9723 2.33368 17.3543 2.33368 16.6667V5.83332H1.50033C1.04009 5.83332 0.666992 5.46023 0.666992 4.99999C0.666992 4.53975 1.04009 4.16666 1.50033 4.16666H3.16701H4.83368ZM7.33367 8.33334C7.79391 8.33334 8.167 8.70644 8.167 9.16668V14.1667C8.167 14.6269 7.79391 15 7.33367 15C6.87343 15 6.50034 14.6269 6.50034 14.1667V9.16668C6.50034 8.70644 6.87343 8.33334 7.33367 8.33334ZM11.5003 9.16668C11.5003 8.70644 11.1272 8.33334 10.667 8.33334C10.2068 8.33334 9.83368 8.70644 9.83368 9.16668V14.1667C9.83368 14.6269 10.2068 15 10.667 15C11.1272 15 11.5003 14.6269 11.5003 14.1667V9.16668Z" fill="black"/>
</svg>
